<?xml version="1.0" encoding="UTF-8"?>
<svg id="Layer_1" xmlns="http://www.w3.org/2000/svg" version="1.1" viewBox="0 0 1024.34 595.28">
  <!-- Generator: Adobe Illustrator 29.3.1, SVG Export Plug-In . SVG Version: 2.1.0 Build 151)  -->
  <defs>
    <style>
      .st0 {
        fill: #231f20;
      }

      .st1 {
        fill: #fff;
      }
    </style>
  </defs>
  <path class="st0" d="M177.53,214.73c11.9,0,22.8,2.24,32.7,6.73,9.89,4.49,18.01,10.52,24.35,18.09,6.34,7.58,11.21,16.2,14.61,25.86,3.4,9.66,5.1,19.75,5.1,30.26,0,23.65-7.11,43.71-21.34,60.18-14.23,16.47-34.32,24.7-60.3,24.7h-68.41l-.23-.46c4.33-2.47,6.49-8.19,6.49-17.16v-120.82c0-9.12-2.47-14.07-7.42-14.84v-.46l28.76-10.9v26.21c2.63-8.81,8.15-15.57,16.58-20.29,8.42-4.71,18.12-7.07,29.1-7.07ZM178.46,378.46c18.24,0,32.16-6.84,41.74-20.52,9.58-13.68,14.38-31.42,14.38-53.22,0-14.38-2.52-27.98-7.54-40.82-5.03-12.83-12.6-23.42-22.73-31.77-10.13-8.35-21.68-12.52-34.67-12.52-11.13,0-20.18,2.9-27.13,8.7-6.96,5.8-10.52,13.72-10.67,23.77v118.04c15.46,5.57,31,8.35,46.61,8.35Z"/>
  <path class="st0" d="M833.82,295.32l-45.92-61.69c-4.49-6.03-9.66-11.59-15.54-16.7l.23-.46h46.38l.23.46c-4.95,2.78-7.04,7.23-6.26,13.33.77,6.11,3.79,12.72,9.04,19.83l28.76,38.26-16.93,6.96ZM852.14,289.75l.33.44,53.24,71.45c4.48,6.03,9.66,11.6,15.54,16.7l-.23.46h-46.38l-.23-.46c4.95-2.78,7.03-7.23,6.26-13.33-.78-6.11-3.79-12.71-9.04-19.83l-36.64-48.47-1.54-1.84,15.55-8.91,3.14,3.79Z"/>
  <rect class="st1" x="373.19" y="278.15" width="342.87" height="36.7"/>
  <path class="st0" d="M401.98,309.46c2.67-.87,3.06-1.08,3.06-4.26v-16.02c0-3.18-.39-3.39-3.06-4.26v-.21h8.27c4.82,0,8.92,1.61,8.92,6.56s-4.07,6.67-10.09,6.67h-1.33v7.26c0,3.18.46,3.39,3.38,4.26v.21h-9.15v-.21ZM408.88,297.13c5.11,0,7.78-1.78,7.78-5.8s-2.6-5.87-6.51-5.87h-2.41v11.66h1.14Z"/>
  <path class="st0" d="M448.56,309.46c2.67-.87,3.06-1.08,3.06-4.26v-16.02c0-3.18-.39-3.39-3.06-4.26v-.21h15.62l.59,5.38h-.2c-.98-2.86-2.96-4.54-5.4-4.54h-4.85v10.33h4.82c1.46,0,2.67-.94,3.35-2.2h.16v5.52h-.16c-.65-1.36-1.86-2.55-3.35-2.51l-4.82.07v10.75c0,.66,1.53,1.29,4.75,1.29h1.79c2.21,0,4.04-2.16,5.14-4.89h.2l-.85,5.76h-16.79v-.21Z"/>
  <path class="st0" d="M496.61,309.46c2.67-.87,3.06-1.08,3.06-4.26v-16.02c0-3.18-.39-3.39-3.06-4.26v-.21h8.98c4.95,0,8.2,2.48,8.2,6.14,0,3.25-2.6,5.73-6.28,6.21,1.89,2.97,3.55,5.38,6.61,9.85.49.7,1.72,1.99,2.6,2.55v.21h-4.07c-2.83-4.15-5.57-8.41-8.01-12.43l-2.28.04v7.92c0,3.18.42,3.39,3.09,4.26v.21h-8.85v-.21ZM505.69,296.43c3.42,0,5.37-1.96,5.37-5.41s-2.02-5.48-5.57-5.48h-3.12v10.89h3.32Z"/>
  <path class="st0" d="M545.97,309.46c2.67-.87,3.06-1.08,3.06-4.26v-16.02c0-3.18-.39-3.39-3.06-4.26v-.21h15.85l.59,5.38h-.2c-.98-2.86-2.96-4.54-5.4-4.54h-5.08v10.33h4.65c1.46,0,2.67-.94,3.35-2.2h.16v5.52h-.16c-.68-1.47-1.92-2.55-3.35-2.51l-4.65.07v8.45c0,3.18.49,3.39,3.68,4.26v.21h-9.44v-.21Z"/>
  <path class="st0" d="M595.29,300.87v-11.7c0-3.18-.39-3.39-3.06-4.26v-.21h8.85v.21c-2.67.87-3.09,1.08-3.09,4.26v11.45c0,5.27,2.31,8.31,6.15,8.31s6.22-2.86,6.22-6.98v-11.03c0-4.96-.55-5.31-3.32-6v-.21h7.45v.21c-2.77.7-3.29,1.05-3.29,6v11c0,4.96-3.09,8.17-7.84,8.17s-8.07-3.49-8.07-9.22Z"/>
  <path class="st0" d="M643.7,309.46c2.77-.7,3.29-1.05,3.29-6.01v-16.37c-.52-.91-2.21-1.89-3.22-2.17v-.21h5.7c2.83,5.17,5.66,10.65,8.33,16.3l8.14-16.3h5.4v.21c-2.67.87-3.06,1.08-3.06,4.26v16.02c0,3.18.39,3.39,3.06,4.26v.21h-8.82v-.21c2.64-.87,3.06-1.08,3.06-4.26v-17.67h-.07c-4.07,7.96-6.9,13.69-8.53,17.18h-.36c-2.9-6.04-5.79-11.59-8.79-16.83v15.57c0,4.96.52,5.31,3.29,6.01v.21h-7.42v-.21Z"/>
  <path class="st0" d="M700.76,309.46c2.67-.87,3.06-1.08,3.06-4.26v-16.02c0-3.18-.39-3.39-3.06-4.26v-.21h15.62l.59,5.38h-.2c-.98-2.86-2.96-4.54-5.4-4.54h-4.85v10.33h4.82c1.46,0,2.67-.94,3.35-2.2h.16v5.52h-.16c-.65-1.36-1.86-2.55-3.35-2.51l-4.82.07v10.75c0,.66,1.53,1.29,4.75,1.29h1.79c2.21,0,4.04-2.16,5.14-4.89h.2l-.85,5.76h-16.79v-.21Z"/>
  <path class="st0" d="M852.86,289.99l27.19-38.89c5.09-7.23,7.84-13.9,8.25-20.02.4-6.12-1.9-10.51-6.91-13.18l.22-.47,29.68-.67.24.46c-5.62,4.77-10.75,10.37-15.39,16.82l-41.85,57.32-1.42-1.36Z"/>
  <path class="st0" d="M842,303.3l-31.27,37.8c-5.85,7.02-9.25,13.68-10.21,19.97-.95,6.29,1.02,11.03,5.91,14.23l-.27.46-30.44-1.92-.21-.49c6.17-4.43,11.92-9.78,17.25-16.03l47.91-55.56"/>
  <path d="M558.55,357.93c-9.59,13.68-23.5,20.52-41.74,20.52-15.01,0-29.96-2.57-44.82-7.72-1.07-.37-1.79-1.39-1.79-2.53v-43.95c0-5.04-4.09-9.13-9.13-9.13h-6.24c-3.3,0-5.97,2.67-5.97,5.97v41.81c0,8.97-2.17,14.69-6.49,17.16l.23.46h68.41c25.97,0,46.07-8.23,60.3-24.7,9.42-10.9,15.7-23.38,18.88-37.44.38-1.68-.89-3.28-2.61-3.28h-12.6c-1.38,0-2.52,1.06-2.66,2.44-1.56,16.02-6.14,29.48-13.76,40.36Z"/>
  <path d="M470.19,252.07c.15-10.05,3.71-17.97,10.67-23.77,6.96-5.8,16-8.7,27.13-8.7,12.99,0,24.54,4.17,34.67,12.52,10.12,8.35,17.7,18.94,22.73,31.77,1.28,3.28,2.4,6.62,3.36,10,.64,2.27,2.72,3.84,5.08,3.84h10.38c3.48,0,6.04-3.32,5.11-6.68-.53-1.9-1.12-3.79-1.77-5.66-3.4-9.66-8.27-18.28-14.61-25.86-6.34-7.57-14.46-13.6-24.35-18.09-9.9-4.48-20.8-6.73-32.7-6.73-10.98,0-20.68,2.36-29.1,7.07-2.87,1.61-5.4,3.45-7.6,5.53-3.4,3.22-8.98.91-8.98-3.78h0c0-3.7-3.7-6.26-7.16-4.95l-21.59,8.18v.46c4.95.78,7.42,5.72,7.42,14.84v30.35c0,2.92,2.37,5.29,5.29,5.29h10.76c2.92,0,5.29-2.37,5.29-5.29v-20.38Z"/>
  <path d="M743.84,236.76c-15.62-15.07-35.02-22.61-58.21-22.61s-43.95,7.96-59.95,23.89c-11.04,10.99-18.27,24.22-21.69,39.7h17.5c.74-18.22,5.91-32.7,15.55-43.41,10.44-11.6,24-17.39,40.7-17.39,13.76,0,26.01,4.52,36.76,13.57,10.74,9.04,18.9,20.91,24.47,35.6,5.57,14.69,8.35,30.61,8.35,47.77,0,20.1-5.18,35.87-15.54,47.31-10.36,11.44-23.97,17.16-40.82,17.16-13.76,0-26.01-4.44-36.76-13.33-10.75-8.89-18.9-20.6-24.47-35.13-1.83-4.77-3.35-9.68-4.58-14.74h-22.36c2.65,17.51,10.07,32.1,22.3,43.73,15.61,14.84,35.02,22.26,58.21,22.26s43.95-7.88,59.95-23.65c16-15.77,24-36.1,24-60.99s-7.81-44.64-23.42-59.72Z"/>
  <path d="M363.98,375.51c-54.85,1.54-74.93-49.44-74.93-49.44-19.31-67.98,17.77-95.79,17.77-95.79,64.12-44.03,99.65,34.76,99.65,34.76l6.66-21.49c-1.16-3.77-29.84-22.31-29.84-22.31-77.35-28.1-110.47,43.94-110.47,43.94-29.36,101.97,66.34,114.72,66.34,114.72,76.77,7.53,85.17-56.1,85.17-56.1l-2.03.05c-9.27,46.35-58.32,51.66-58.32,51.66Z"/>
  <polygon points="276 292.98 361.88 283.19 361.88 306.96 274.73 295.77 276 292.98"/>
</svg>