<?xml version="1.0" encoding="UTF-8"?>
<svg id="Layer_1" xmlns="http://www.w3.org/2000/svg" version="1.1" viewBox="0 0 1024.56 595.44">
  <!-- Generator: Adobe Illustrator 29.3.1, SVG Export Plug-In . SVG Version: 2.1.0 Build 151)  -->
  <path d="M132.21,240.8l4.89-8.79c28.57-31.43,83.06-17.34,104.06,16.21,34.39,54.95,1.32,135.62-68.37,132.7l-67.93-.26c-1.07-.6,1.47-1.85,1.93-2.41,2.55-3.11,3.32-7.12,3.86-11.02v-129.1c-.52-5-2.14-9.28-7.21-11.02l28.79-10.8v24.47ZM132.27,370.28c5.18,1.75,10.42,3.4,15.76,4.63,35.67,8.24,66.06,5.21,80.51-32.27s4.84-96.28-32.98-116.48c-23.44-12.52-60.19-7.66-63.37,23.5l.09,120.62Z"/>
  <path d="M602.98,315.17h22.55c5.62,27.45,25.44,56.88,54.62,62.22,34.29,6.28,60.93-14.58,66.16-48.22,7.36-47.33-16.97-115.93-74.49-111.91-31.23,2.18-50.07,31.03-50.13,60.47h-17.28c5.5-29.8,30.66-54.49,59.98-61.18,50.15-11.45,97.71,17.69,102.7,70.06,5.76,60.48-40.99,103.56-100.86,93.17-32.36-5.62-59.13-31.66-63.26-64.62Z"/>
  <path d="M362.07,307.02l-77.74-10.08c-1.36,1.96,3.56,25,4.78,28.56,10.74,31.43,51.15,57.04,84.2,48.17,24.31-6.53,44.51-24.12,49.18-49.58l1.97-.28c-1.53,10.29-6.04,20.52-12.08,28.94-34.52,48.06-121.75,30.3-140.53-23.89-7.65-22.07-5.58-55.28,7.78-74.77,22.61-33,57.78-46.75,96.85-35.11,9.31,2.77,20.47,10.81,28.27,16.83,2.98,2.3,5.91,4.62,8.45,7.41.32.77-.38,2.36-.61,3.23-.84,3.24-4.29,15.73-5.65,17.86-.13.2-.52.63-.71.48-13.35-27.74-39.84-54.03-73.43-46.31-10.84,2.49-24.4,9.27-31.65,17.77-12.76,14.96-18.02,36.49-17.29,55.88l78.22-8.64v23.51Z"/>
  <path d="M818.69,216.33c.17.04.84.78.72.95-13.26,7.65-3.12,24.47,3.17,33.54,9.39,13.54,20.1,26.38,30.18,39.39,8.59-12.86,18.29-25.08,26.74-38.03,5.31-8.14,13.81-22.4,5.66-31.31-.54-.59-4.05-2.98-3.37-3.58l29.75-.48c.18.8-.26.97-.73,1.43-2.19,2.13-4.95,4.06-6.96,6.47-17.06,21.49-32.65,44.15-48.93,66.25l-1.69-.74-.23.71,54.99,73.61c2.43,2.69,4.87,5.89,7.37,8.46,1.87,1.91,4.89,3.36,5.77,5.98h-46.55c-.11-1.35,1.91-1.66,2.9-2.62,5.95-5.8,2.85-15.45-.08-22.03-10.8-17.26-24.11-32.86-36.22-49.22l-1.15.7c-9.23,12.39-20.43,23.75-29.74,36-7.23,9.52-15.83,24.34-3.85,33.81l-30.7-2.15c5.39-4.18,10.42-8.72,15.11-13.67l48.63-56.78-53.01-71.28c-4.28-5.13-8.61-10.26-13.87-14.44l.48-.96h45.59Z"/>
  <path d="M468.93,219.85c2.77,2.77.13,8.78,6.63,9,3.23.11,6.14-3.68,8.92-5.52,15.43-10.19,37.8-10.3,55.03-5.21,21.39,6.32,37.11,21.09,45.93,41.41,1.93,4.45,7.97,16.97-.02,18.19-2.27.35-10.17.36-12.47.05-1.44-.2-2.97-1.26-3.68-2.56-1.81-3.31-3.23-10.38-5.09-14.58-11.72-26.44-37.04-46.14-67.28-39.76-14.08,2.97-25.31,13.55-26.4,28.31-.55,7.43.89,16.35.03,23.54-.26,2.16-1.85,4.64-4.12,5-1.98.31-12.99.27-14.49-.34s-2.82-3.03-3.01-4.66c-1.21-10.05,2.57-34.38-2.27-41.87-1.4-2.17-2.78-2.54-4.91-3.72l22.43-8.78c1.43-.31,3.74.5,4.75,1.51Z"/>
  <path d="M471.13,370.23c1.2,1.26,14.92,4.69,17.54,5.25,33.41,7.15,62.44,4.26,77.1-30.09,4.2-9.83,4.69-17.34,6.61-27.46.37-1.98,1.01-2.53,3-2.76s12.66-.24,13.87.54c2.41,1.53-.14,8.04-.91,10.5-8.75,27.86-30.49,48.39-59.64,53.12-26.76,4.34-57.09-.02-84.34,1.6l-1.65-.74c1.81-1.34,3.19-2.88,4.17-4.94,5.11-10.64.55-40.62,2.06-54.08.4-3.62,2.37-5.61,6-6,7.71-.82,14.84.39,15.61,9.34,1.19,13.79-1.21,29.43-.04,43.22.07.78.07,1.91.62,2.5Z"/>
  <path d="M644.25,309.9c.16-.92,1.46-.57,2.14-1.46.38-.5.6-1.53.7-2.18.53-3.67.45-13.92.07-17.73-.08-.76.04-1.22-.47-1.93-.64-.9-2.19-.7-2.43-1.64l5.68.07,7.76,15.75,8.1-15.54,5.33-.29c-.38,1.04-1.87.27-2.31,1.77-.28.95-.52,4.81-.59,6.12-.14,2.51-.31,14.19.75,15.61.51.68,1.95.37,2.16,1.44h-8.16v-.47c1.29.1,2.88-1.5,2.88-2.64v-18.47l-8.88,16.3-8.88-15.82v18.47c0,.82,1.9,2.28,2.88,2.17v.47s-6.71,0-6.71,0Z"/>
  <path d="M508.68,284.95c4.51.75,7.24,6.45,3.79,10.03l-4.5,2.68,9.11,12.24c-1.23-.16-3.28.39-4.32-.24-1.58-.95-6.78-11.57-7.78-12.13-.58-.33-1.61-.02-2.3-.1v10.32c0,.45,2.18,1.79,2.88,1.69v.47s-8.63,0-8.63,0c.25-.94,1.79-.74,2.44-1.64.51-.71.39-1.17.47-1.93.4-4.04.48-14.81-.07-18.71-.07-.48-.21-1.27-.54-1.6-.66-.64-2.22-.12-2.29-1.07,3.58.42,8.35-.57,11.76,0ZM502.68,296.46c4.13.34,8.5.08,8.66-5.05.18-5.58-4.22-5.96-8.66-5.5v10.56Z"/>
  <path d="M716.71,284.95l.47,5.28c-.81-.39-.93-1.56-1.66-2.41-2.51-2.93-5.46-1.68-8.89-1.9v10.08c1.71-.2,3.89.3,5.51-.01,1.48-.28,1.83-2.29,3.13-1.67v4.55c-1.48.04-1.66-1.63-3.13-1.91-1.62-.31-3.8.19-5.51-.01v10.8c2.57,1.8,7.03,1.9,9.38-.22,1.15-1.03,1.52-2.51,2.62-3.38l-.96,5.75h-16.8c.24-.94,1.79-.74,2.44-1.64,1.45-2.02-.18-17.58.44-21.15l-2.4-2.16h15.36Z"/>
  <path d="M464.29,284.95l.48,4.8c-.85-.37-.86-1.57-1.65-2.42-2.19-2.35-5.53-1.15-8.42-1.42v10.08c1.72-.15,3.75.27,5.42-.1,1.24-.28,1.68-1.46,2.74-1.58v4.56c-2.29-2.76-4.93-1.82-8.16-1.92v10.8c2.24,1.71,7.05,1.86,9.14.02,1.04-.92,1.32-2.45,2.37-3.14l-.47,5.28h-16.8c.32-.97,1.64-.61,2.35-1.73.5-.78.47-1.47.55-2.33.37-4.09.49-14.3-.07-18.23-.07-.48-.21-1.27-.54-1.6-.66-.64-2.22-.12-2.29-1.07h15.36Z"/>
  <path d="M408.14,297.9v9.84c0,.45,2.18,1.79,2.88,1.69v.47s-8.63,0-8.63,0c.17-.89,1.44-.64,2.15-1.45.42-.49.6-1.07.7-1.7.56-3.52.42-14.48.06-18.23-.08-.79,0-1.17-.48-1.92-.76-1.18-2.06-.71-2.43-1.65h11.76c1.18,0,4.19,2.28,4.68,3.48,3.02,7.48-4.55,10.43-10.67,9.47ZM408.14,297.42c11.78.64,11.69-12.77,0-12v12Z"/>
  <path d="M601.06,284.95c-.07.81-1.19.5-1.97,1.15-.48.41-.78.87-.9,1.5-.44,2.37-.32,12.74.03,15.3,1.12,8.18,11.28,8.18,12.39,0,.34-2.52.31-14.67-.68-16.5-.64-1.19-1.98-.47-2.15-1.44h6.23c.04.86-1.28.54-1.81,1.07-3.03,3.04,4.33,24.39-8.51,24.36-12.16-.03-7.11-16.35-8.4-23.27-.32-1.73-1.87-.97-2.4-2.16h8.16Z"/>
  <path d="M562.19,284.95l.47,5.28c-.81-.4-.93-1.56-1.66-2.41-2.51-2.93-5.46-1.68-8.89-1.9v10.08c3.14,0,5.83.62,8.15-1.92v4.56c-1,1.01-.99-.58-1.44-.93-1.68-1.35-4.65-.54-6.72-.74v10.8l3.36,2.16h-9.12c.17-.89,1.44-.64,2.15-1.45.42-.49.6-1.07.7-1.7.56-3.52.42-14.48.06-18.23-.08-.79,0-1.17-.48-1.92-.76-1.18-2.06-.71-2.43-1.65h15.84Z"/>
</svg>